<svg xmlns="http://www.w3.org/2000/svg" viewBox="0 0 454 454" style="enable-background:new 0 0 454 454" xml:space="preserve"><path d="M362.018 80.86C374.147 77.714 383 68.412 383 57.5c0-13.475-13.5-24.5-30-24.5h-8.225l-11.671-20.039C328.953 5.833 318.806 0 310.556 0L143.445.001c-8.25 0-18.397 5.833-22.549 12.962L109.226 33H101c-16.5 0-30 11.025-30 24.5 0 11.074 9.121 20.488 21.529 23.493l16.282 131.194h45.625c7.646-33.006 37.267-57.688 72.564-57.688 35.297 0 64.917 24.682 72.563 57.688h48.795l13.66-131.327zM298.413 250.188C289.262 280.976 260.72 303.5 227 303.5s-62.262-22.524-71.413-53.312h-42.031l21.728 174.043C137.328 440.604 152.5 454 169 454h124c16.5 0 31.408-13.426 33.129-29.836l18.245-173.976h-45.961z"/></svg>